{
  "label": "A",
  "source_cell_id": "one_stage_q8_6s",
  "pipeline_lane": "one_stage_q8",
  "pipeline_label": "One-stage q8",
  "duration_seconds": 6,
  "frames": 144,
  "seed": 510102,
  "terminal_walk_start_seconds": 1283.131247,
  "terminal_walk_start_display": "21:23.131",
  "selection_reason": "Best overall visual pre-screen: 6s one-stage has the clearest natural cadence and no large machine-detected crouch or raised-arm event.",
  "raw_chroma_crew_clip": {
    "path": "/Users/mike/Episodes_CascadeEffects/Ep1_Challenger/production/longform_v3_20_25min/youtube/rough_assembly/living_cover_photoreal_ink_lit_ltx23_variable_duration_terminal_walk_scout_20260506T173517Z/clips/raw_chroma_crew/one_stage_q8_6s_seed510102_raw_chroma_6s.mp4",
    "sha256": "509ee44d2955b33cf433f4146b4d74b8a49787601c05d11670c4856d455003f8",
    "bytes": 1418416,
    "duration_seconds": 6.0,
    "width": 960,
    "height": 384,
    "codec_name": "h264",
    "pix_fmt": "yuv420p",
    "avg_frame_rate": "24/1",
    "nb_frames": "144",
    "has_audio": false,
    "ffprobe": {
      "streams": [
        {
          "index": 0,
          "codec_name": "h264",
          "codec_long_name": "H.264 / AVC / MPEG-4 AVC / MPEG-4 part 10",
          "profile": "High",
          "codec_type": "video",
          "codec_tag_string": "avc1",
          "codec_tag": "0x31637661",
          "width": 960,
          "height": 384,
          "coded_width": 960,
          "coded_height": 384,
          "has_b_frames": 2,
          "pix_fmt": "yuv420p",
          "level": 30,
          "chroma_location": "left",
          "field_order": "progressive",
          "refs": 1,
          "is_avc": "true",
          "nal_length_size": "4",
          "id": "0x1",
          "r_frame_rate": "24/1",
          "avg_frame_rate": "24/1",
          "time_base": "1/12288",
          "start_pts": 0,
          "start_time": "0.000000",
          "duration_ts": 73728,
          "duration": "6.000000",
          "bit_rate": "1887753",
          "bits_per_raw_sample": "8",
          "nb_frames": "144",
          "extradata_size": 45,
          "disposition": {
            "default": 1,
            "dub": 0,
            "original": 0,
            "comment": 0,
            "lyrics": 0,
            "karaoke": 0,
            "forced": 0,
            "hearing_impaired": 0,
            "visual_impaired": 0,
            "clean_effects": 0,
            "attached_pic": 0,
            "timed_thumbnails": 0,
            "non_diegetic": 0,
            "captions": 0,
            "descriptions": 0,
            "metadata": 0,
            "dependent": 0,
            "still_image": 0,
            "multilayer": 0
          },
          "tags": {
            "language": "und",
            "handler_name": "VideoHandler",
            "vendor_id": "[0][0][0][0]",
            "encoder": "Lavc62.11.100 libx264"
          }
        }
      ],
      "format": {
        "filename": "/Users/mike/Episodes_CascadeEffects/Ep1_Challenger/production/longform_v3_20_25min/youtube/rough_assembly/living_cover_photoreal_ink_lit_ltx23_variable_duration_terminal_walk_scout_20260506T173517Z/clips/raw_chroma_crew/one_stage_q8_6s_seed510102_raw_chroma_6s.mp4",
        "nb_streams": 1,
        "nb_programs": 0,
        "nb_stream_groups": 0,
        "format_name": "mov,mp4,m4a,3gp,3g2,mj2",
        "format_long_name": "QuickTime / MOV",
        "start_time": "0.000000",
        "duration": "6.000000",
        "size": "1418416",
        "bit_rate": "1891221",
        "probe_score": 100,
        "tags": {
          "major_brand": "isom",
          "minor_version": "512",
          "compatible_brands": "isomiso2avc1mp41",
          "encoder": "Lavf62.3.100"
        }
      }
    }
  },
  "keyed_alpha_preview_clip": {
    "path": "/Users/mike/Episodes_CascadeEffects/Ep1_Challenger/production/longform_v3_20_25min/youtube/rough_assembly/living_cover_photoreal_ink_lit_ltx23_variable_duration_terminal_walk_scout_20260506T173517Z/clips/keyed_alpha_preview/one_stage_q8_6s_keyed_alpha_preview_6s.mp4",
    "sha256": "79e8b04770815dc22956a265b748b119b9ac3b958739e02729d57ee7772fb4e1",
    "bytes": 1707910,
    "duration_seconds": 6.0,
    "width": 960,
    "height": 384,
    "codec_name": "h264",
    "pix_fmt": "yuv420p",
    "avg_frame_rate": "24/1",
    "nb_frames": "144",
    "has_audio": false,
    "ffprobe": {
      "streams": [
        {
          "index": 0,
          "codec_name": "h264",
          "codec_long_name": "H.264 / AVC / MPEG-4 AVC / MPEG-4 part 10",
          "profile": "High",
          "codec_type": "video",
          "codec_tag_string": "avc1",
          "codec_tag": "0x31637661",
          "width": 960,
          "height": 384,
          "coded_width": 960,
          "coded_height": 384,
          "has_b_frames": 2,
          "pix_fmt": "yuv420p",
          "level": 30,
          "chroma_location": "left",
          "field_order": "progressive",
          "refs": 1,
          "is_avc": "true",
          "nal_length_size": "4",
          "id": "0x1",
          "r_frame_rate": "24/1",
          "avg_frame_rate": "24/1",
          "time_base": "1/12288",
          "start_pts": 0,
          "start_time": "0.000000",
          "duration_ts": 73728,
          "duration": "6.000000",
          "bit_rate": "2273745",
          "bits_per_raw_sample": "8",
          "nb_frames": "144",
          "extradata_size": 45,
          "disposition": {
            "default": 1,
            "dub": 0,
            "original": 0,
            "comment": 0,
            "lyrics": 0,
            "karaoke": 0,
            "forced": 0,
            "hearing_impaired": 0,
            "visual_impaired": 0,
            "clean_effects": 0,
            "attached_pic": 0,
            "timed_thumbnails": 0,
            "non_diegetic": 0,
            "captions": 0,
            "descriptions": 0,
            "metadata": 0,
            "dependent": 0,
            "still_image": 0,
            "multilayer": 0
          },
          "tags": {
            "language": "und",
            "handler_name": "VideoHandler",
            "vendor_id": "[0][0][0][0]",
            "encoder": "Lavc62.11.100 libx264"
          }
        }
      ],
      "format": {
        "filename": "/Users/mike/Episodes_CascadeEffects/Ep1_Challenger/production/longform_v3_20_25min/youtube/rough_assembly/living_cover_photoreal_ink_lit_ltx23_variable_duration_terminal_walk_scout_20260506T173517Z/clips/keyed_alpha_preview/one_stage_q8_6s_keyed_alpha_preview_6s.mp4",
        "nb_streams": 1,
        "nb_programs": 0,
        "nb_stream_groups": 0,
        "format_name": "mov,mp4,m4a,3gp,3g2,mj2",
        "format_long_name": "QuickTime / MOV",
        "start_time": "0.000000",
        "duration": "6.000000",
        "size": "1707910",
        "bit_rate": "2277213",
        "probe_score": 100,
        "tags": {
          "major_brand": "isom",
          "minor_version": "512",
          "compatible_brands": "isomiso2avc1mp41",
          "encoder": "Lavf62.3.100"
        }
      }
    }
  },
  "composited_full_frame_clip": {
    "path": "/Users/mike/Episodes_CascadeEffects/Ep1_Challenger/production/longform_v3_20_25min/youtube/rough_assembly/living_cover_photoreal_ink_lit_ltx23_variable_duration_terminal_walk_scout_20260506T173517Z/clips/composited_full_frame/one_stage_q8_6s_composited_full_frame_6s.mp4",
    "sha256": "3a6569137b6654d65d530a61458885ff6efbc0c146c2acfc8f2e65a1d0f0c2b0",
    "bytes": 1799716,
    "duration_seconds": 6.0,
    "width": 1920,
    "height": 1080,
    "codec_name": "h264",
    "pix_fmt": "yuv420p",
    "avg_frame_rate": "24/1",
    "nb_frames": "144",
    "has_audio": false,
    "ffprobe": {
      "streams": [
        {
          "index": 0,
          "codec_name": "h264",
          "codec_long_name": "H.264 / AVC / MPEG-4 AVC / MPEG-4 part 10",
          "profile": "High",
          "codec_type": "video",
          "codec_tag_string": "avc1",
          "codec_tag": "0x31637661",
          "width": 1920,
          "height": 1080,
          "coded_width": 1920,
          "coded_height": 1080,
          "has_b_frames": 2,
          "pix_fmt": "yuv420p",
          "level": 40,
          "chroma_location": "left",
          "field_order": "progressive",
          "refs": 1,
          "is_avc": "true",
          "nal_length_size": "4",
          "id": "0x1",
          "r_frame_rate": "24/1",
          "avg_frame_rate": "24/1",
          "time_base": "1/12288",
          "start_pts": 0,
          "start_time": "0.000000",
          "duration_ts": 73728,
          "duration": "6.000000",
          "bit_rate": "2396177",
          "bits_per_raw_sample": "8",
          "nb_frames": "144",
          "extradata_size": 47,
          "disposition": {
            "default": 1,
            "dub": 0,
            "original": 0,
            "comment": 0,
            "lyrics": 0,
            "karaoke": 0,
            "forced": 0,
            "hearing_impaired": 0,
            "visual_impaired": 0,
            "clean_effects": 0,
            "attached_pic": 0,
            "timed_thumbnails": 0,
            "non_diegetic": 0,
            "captions": 0,
            "descriptions": 0,
            "metadata": 0,
            "dependent": 0,
            "still_image": 0,
            "multilayer": 0
          },
          "tags": {
            "language": "und",
            "handler_name": "VideoHandler",
            "vendor_id": "[0][0][0][0]",
            "encoder": "Lavc62.11.100 libx264"
          }
        }
      ],
      "format": {
        "filename": "/Users/mike/Episodes_CascadeEffects/Ep1_Challenger/production/longform_v3_20_25min/youtube/rough_assembly/living_cover_photoreal_ink_lit_ltx23_variable_duration_terminal_walk_scout_20260506T173517Z/clips/composited_full_frame/one_stage_q8_6s_composited_full_frame_6s.mp4",
        "nb_streams": 1,
        "nb_programs": 0,
        "nb_stream_groups": 0,
        "format_name": "mov,mp4,m4a,3gp,3g2,mj2",
        "format_long_name": "QuickTime / MOV",
        "start_time": "0.000000",
        "duration": "6.000000",
        "size": "1799716",
        "bit_rate": "2399621",
        "probe_score": 100,
        "tags": {
          "major_brand": "isom",
          "minor_version": "512",
          "compatible_brands": "isomiso2avc1mp41",
          "encoder": "Lavf62.3.100"
        }
      }
    }
  },
  "transition_review_clip": {
    "path": "/Users/mike/Episodes_CascadeEffects/Ep1_Challenger/production/longform_v3_20_25min/youtube/rough_assembly/living_cover_photoreal_ink_lit_ltx23_variable_duration_terminal_walk_scout_20260506T173517Z/clips/transition_review/one_stage_q8_6s_static_then_terminal_walk_review_8s.mp4",
    "sha256": "d1f2776c564b4261eeaef99dcb454e9a35dd5493a4a62ce646eeec5b36f21838",
    "bytes": 1868270,
    "duration_seconds": 8.0,
    "width": 1920,
    "height": 1080,
    "codec_name": "h264",
    "pix_fmt": "yuv420p",
    "avg_frame_rate": "24/1",
    "nb_frames": "192",
    "has_audio": false,
    "ffprobe": {
      "streams": [
        {
          "index": 0,
          "codec_name": "h264",
          "codec_long_name": "H.264 / AVC / MPEG-4 AVC / MPEG-4 part 10",
          "profile": "High",
          "codec_type": "video",
          "codec_tag_string": "avc1",
          "codec_tag": "0x31637661",
          "width": 1920,
          "height": 1080,
          "coded_width": 1920,
          "coded_height": 1080,
          "has_b_frames": 2,
          "pix_fmt": "yuv420p",
          "level": 40,
          "chroma_location": "left",
          "field_order": "progressive",
          "refs": 1,
          "is_avc": "true",
          "nal_length_size": "4",
          "id": "0x1",
          "r_frame_rate": "24/1",
          "avg_frame_rate": "24/1",
          "time_base": "1/12288",
          "start_pts": 0,
          "start_time": "0.000000",
          "duration_ts": 98304,
          "duration": "8.000000",
          "bit_rate": "1865099",
          "bits_per_raw_sample": "8",
          "nb_frames": "192",
          "extradata_size": 47,
          "disposition": {
            "default": 1,
            "dub": 0,
            "original": 0,
            "comment": 0,
            "lyrics": 0,
            "karaoke": 0,
            "forced": 0,
            "hearing_impaired": 0,
            "visual_impaired": 0,
            "clean_effects": 0,
            "attached_pic": 0,
            "timed_thumbnails": 0,
            "non_diegetic": 0,
            "captions": 0,
            "descriptions": 0,
            "metadata": 0,
            "dependent": 0,
            "still_image": 0,
            "multilayer": 0
          },
          "tags": {
            "language": "und",
            "handler_name": "VideoHandler",
            "vendor_id": "[0][0][0][0]",
            "encoder": "Lavc62.11.100 libx264"
          }
        }
      ],
      "format": {
        "filename": "/Users/mike/Episodes_CascadeEffects/Ep1_Challenger/production/longform_v3_20_25min/youtube/rough_assembly/living_cover_photoreal_ink_lit_ltx23_variable_duration_terminal_walk_scout_20260506T173517Z/clips/transition_review/one_stage_q8_6s_static_then_terminal_walk_review_8s.mp4",
        "nb_streams": 1,
        "nb_programs": 0,
        "nb_stream_groups": 0,
        "format_name": "mov,mp4,m4a,3gp,3g2,mj2",
        "format_long_name": "QuickTime / MOV",
        "start_time": "0.000000",
        "duration": "8.000000",
        "size": "1868270",
        "bit_rate": "1868270",
        "probe_score": 100,
        "tags": {
          "major_brand": "isom",
          "minor_version": "512",
          "compatible_brands": "isomiso2avc1mp41",
          "encoder": "Lavf62.3.100"
        }
      }
    }
  },
  "machine_motion_probe": {
    "crew_crop_motion_delta_score": 31.8573,
    "upper_body_raise_probe": {
      "upper_body_blue_pixel_counts": [
        10860,
        11540,
        14834,
        12586,
        8645,
        8518
      ],
      "max_delta_from_first": 3974,
      "machine_flag": "no_large_upper_body_raise_detected"
    },
    "squat_crouch_probe": {
      "silhouette_top_y": [
        79,
        84,
        83,
        0,
        0,
        16
      ],
      "silhouette_center_y": [
        219.535,
        222.082,
        222.909,
        213.046,
        209.171,
        217.994
      ],
      "max_top_drop_pixels": 5,
      "max_center_drop_pixels": 3.374,
      "machine_flag": "no_large_crouch_detected"
    },
    "note": "Machine probes are coarse screening only; human review is authoritative."
  },
  "selected_for_full_runtime_html_proof": false,
  "selected_for_full_runtime_html_proof_status": "pending_human_review",
  "human_disposition": "defer"
}
